<?xml version="1.0" encoding="UTF-8"?>
<svg id="_圖層_1" data-name="圖層 1" xmlns="http://www.w3.org/2000/svg" version="1.1" viewBox="0 0 1000 360">
  <g>
    <path d="M187.8,287.2h-9.77l-3.88-10.1h-17.78l-3.67,10.1h-9.52l17.32-44.47h9.49l17.81,44.47ZM171.27,269.61l-6.13-16.5-6.01,16.5h12.13Z" fill="#000" stroke-width="0"/>
    <path d="M207.49,242.73h16.41c3.7,0,6.52.28,8.46.85,2.61.77,4.84,2.13,6.7,4.09,1.86,1.96,3.28,4.37,4.25,7.21.97,2.84,1.46,6.34,1.46,10.51,0,3.66-.45,6.81-1.36,9.46-1.11,3.24-2.7,5.85-4.76,7.86-1.56,1.52-3.66,2.7-6.31,3.55-1.98.63-4.63.94-7.95.94h-16.9v-44.47ZM216.47,250.25v29.45h6.7c2.51,0,4.32-.14,5.43-.42,1.46-.36,2.66-.98,3.62-1.85.96-.87,1.74-2.3,2.35-4.29.61-1.99.91-4.71.91-8.15s-.3-6.08-.91-7.92c-.61-1.84-1.46-3.28-2.55-4.31-1.09-1.03-2.48-1.73-4.16-2.09-1.25-.28-3.71-.42-7.37-.42h-4.03Z" fill="#000" stroke-width="0"/>
    <path d="M270.98,276.95l8.49,1.43c-1.09,3.11-2.82,5.49-5.17,7.11-2.36,1.64-5.3,2.45-8.84,2.45-5.6,0-9.75-1.83-12.44-5.49-2.12-2.93-3.19-6.63-3.19-11.1,0-5.34,1.4-9.51,4.19-12.55,2.79-3.01,6.32-4.53,10.59-4.53,4.79,0,8.57,1.59,11.34,4.75,2.77,3.16,4.09,8.01,3.97,14.54h-21.35c.06,2.53.75,4.5,2.06,5.9,1.31,1.41,2.95,2.1,4.91,2.1,1.33,0,2.46-.36,3.37-1.09.91-.73,1.6-1.9,2.06-3.52ZM271.46,268.33c-.06-2.47-.7-4.34-1.91-5.62-1.21-1.28-2.69-1.93-4.43-1.93-1.86,0-3.4.68-4.61,2.03-1.21,1.35-1.81,3.2-1.79,5.52h12.74Z" fill="#000" stroke-width="0"/>
    <path d="M286.87,287.2v-44.47h8.52v44.47h-8.52Z" fill="#000" stroke-width="0"/>
    <path d="M318.9,254.99v6.79h-5.82v12.98c0,2.63.06,4.17.17,4.59.11.44.36.8.76,1.08.39.28.87.42,1.44.42.79,0,1.93-.27,3.43-.82l.73,6.61c-1.98.85-4.23,1.27-6.73,1.27-1.54,0-2.92-.26-4.16-.77-1.23-.53-2.14-1.19-2.71-2-.58-.83-.98-1.93-1.2-3.33-.18-.99-.27-2.99-.27-6.01v-14.04h-3.91v-6.79h3.91v-6.4l8.55-4.97v11.38h5.82Z" fill="#000" stroke-width="0"/>
    <path d="M331.19,264.81l-7.73-1.4c.87-3.11,2.37-5.42,4.49-6.92,2.12-1.5,5.28-2.24,9.46-2.24,3.8,0,6.63.45,8.49,1.35,1.86.9,3.17,2.04,3.93,3.42.76,1.4,1.14,3.93,1.14,7.63l-.09,9.95c0,2.83.14,4.92.41,6.26.27,1.35.78,2.79,1.53,4.33h-8.43c-.22-.57-.5-1.41-.82-2.52-.14-.51-.24-.84-.3-1-1.46,1.42-3.01,2.48-4.67,3.19-1.66.71-3.43,1.06-5.31,1.06-3.32,0-5.93-.9-7.84-2.7-1.91-1.8-2.87-4.07-2.87-6.83,0-1.82.43-3.44,1.3-4.87.87-1.42,2.09-2.51,3.66-3.28,1.57-.75,3.83-1.42,6.78-1.98,3.98-.75,6.74-1.45,8.28-2.09v-.85c0-1.64-.4-2.8-1.21-3.51-.81-.69-2.34-1.04-4.58-1.04-1.52,0-2.7.3-3.55.9s-1.54,1.64-2.06,3.13ZM342.59,271.73c-1.09.36-2.82.8-5.19,1.3-2.37.51-3.91,1-4.64,1.49-1.11.79-1.67,1.79-1.67,3s.44,2.22,1.33,3.09c.89.87,2.02,1.3,3.4,1.3,1.54,0,3-.51,4.4-1.52,1.03-.77,1.71-1.71,2.03-2.82.22-.73.33-2.11.33-4.16v-1.7Z" fill="#000" stroke-width="0"/>
    <path d="M397.37,270.85v-7.49h19.35v17.71c-1.88,1.82-4.61,3.43-8.17,4.81-3.57,1.38-7.18,2.07-10.84,2.07-4.65,0-8.71-.97-12.16-2.92-3.46-1.95-6.06-4.74-7.8-8.37-1.74-3.63-2.61-7.58-2.61-11.85,0-4.63.97-8.75,2.91-12.35,1.94-3.6,4.78-6.36,8.52-8.28,2.85-1.48,6.4-2.21,10.65-2.21,5.52,0,9.83,1.16,12.94,3.47,3.1,2.33,5.1,5.52,5.99,9.61l-8.92,1.67c-.63-2.18-1.8-3.9-3.53-5.17-1.73-1.26-3.89-1.9-6.48-1.9-3.92,0-7.04,1.24-9.36,3.73-2.32,2.49-3.47,6.18-3.47,11.07,0,5.28,1.17,9.24,3.52,11.87,2.35,2.65,5.42,3.96,9.22,3.96,1.88,0,3.77-.36,5.66-1.11,1.89-.73,3.51-1.63,4.87-2.68v-5.64h-10.28Z" fill="#000" stroke-width="0"/>
    <path d="M433.11,287.2h-8.52v-32.21h7.92v4.58c1.35-2.16,2.57-3.59,3.66-4.28,1.08-.69,2.31-1.03,3.69-1.03,1.94,0,3.81.54,5.61,1.61l-2.64,7.43c-1.44-.93-2.77-1.4-4-1.4s-2.2.33-3.03.99c-.83.66-1.48,1.84-1.96,3.56-.48,1.72-.71,5.32-.71,10.8v9.95Z" fill="#000" stroke-width="0"/>
    <path d="M447.15,270.64c0-2.83.7-5.57,2.09-8.22,1.4-2.65,3.37-4.67,5.93-6.07,2.56-1.4,5.41-2.09,8.57-2.09,4.87,0,8.87,1.59,11.98,4.75,3.11,3.16,4.67,7.16,4.67,11.99s-1.57,8.92-4.72,12.11c-3.14,3.22-7.1,4.81-11.88,4.81-2.95,0-5.77-.67-8.45-2-2.68-1.33-4.72-3.3-6.11-5.86-1.4-2.59-2.09-5.72-2.09-9.42ZM455.89,271.09c0,3.2.76,5.64,2.27,7.34,1.52,1.7,3.39,2.55,5.61,2.55s4.09-.85,5.6-2.55c1.51-1.7,2.26-4.17,2.26-7.4s-.75-5.58-2.26-7.28c-1.51-1.7-3.37-2.55-5.6-2.55s-4.09.85-5.61,2.55c-1.52,1.7-2.27,4.15-2.27,7.34Z" fill="#000" stroke-width="0"/>
    <path d="M508.27,287.2v-4.82c-1.17,1.72-2.71,3.07-4.63,4.06-1.91.99-3.92,1.49-6.05,1.49s-4.11-.48-5.82-1.43c-1.72-.95-2.96-2.29-3.73-4-.77-1.72-1.15-4.1-1.15-7.13v-20.38h8.52v14.8c0,4.53.16,7.31.47,8.33.31,1.02.88,1.83,1.71,2.43.83.6,1.88.89,3.15.89,1.45,0,2.76-.39,3.91-1.19,1.15-.8,1.94-1.8,2.37-2.97.42-1.19.64-4.08.64-8.7v-13.59h8.52v32.21h-7.92Z" fill="#000" stroke-width="0"/>
    <path d="M524.77,254.99h7.95v4.73c1.03-1.62,2.43-2.93,4.19-3.94,1.76-1.01,3.71-1.52,5.85-1.52,3.74,0,6.92,1.47,9.52,4.4,2.61,2.93,3.91,7.02,3.91,12.25s-1.31,9.57-3.94,12.55c-2.63,2.98-5.81,4.47-9.56,4.47-1.78,0-3.4-.35-4.84-1.06-1.45-.71-2.96-1.92-4.56-3.64v16.23h-8.52v-44.47ZM533.2,270.55c0,3.62.72,6.3,2.15,8.02,1.44,1.74,3.19,2.6,5.25,2.6s3.63-.79,4.94-2.38c1.31-1.59,1.97-4.2,1.97-7.82,0-3.38-.68-5.88-2.03-7.52-1.35-1.64-3.03-2.46-5.04-2.46s-3.81.81-5.19,2.41c-1.38,1.62-2.06,3.99-2.06,7.15Z" fill="#000" stroke-width="0"/>
    <path d="M608.73,270.85l8.71,2.76c-1.33,4.85-3.56,8.46-6.66,10.82-3.1,2.36-7.04,3.53-11.81,3.53-5.9,0-10.76-2.01-14.56-6.06-3.8-4.02-5.7-9.54-5.7-16.54,0-7.4,1.91-13.14,5.73-17.25,3.82-4.08,8.85-6.14,15.08-6.14,5.44,0,9.86,1.61,13.26,4.82,2.02,1.9,3.54,4.63,4.55,8.19l-8.89,2.12c-.53-2.31-1.63-4.13-3.3-5.46-1.67-1.33-3.69-2-6.08-2-3.3,0-5.98,1.18-8.03,3.55-2.05,2.37-3.07,6.2-3.07,11.5,0,5.62,1.01,9.63,3.03,12.01,2.02,2.39,4.65,3.58,7.89,3.58,2.39,0,4.44-.76,6.16-2.28,1.72-1.52,2.95-3.9,3.7-7.16Z" fill="#000" stroke-width="0"/>
    <path d="M623.11,270.64c0-2.83.7-5.57,2.09-8.22,1.4-2.65,3.37-4.67,5.93-6.07,2.56-1.4,5.42-2.09,8.57-2.09,4.87,0,8.87,1.59,11.98,4.75,3.11,3.16,4.67,7.16,4.67,11.99s-1.58,8.92-4.72,12.11c-3.14,3.22-7.1,4.81-11.87,4.81-2.95,0-5.77-.67-8.45-2-2.68-1.33-4.71-3.3-6.11-5.86-1.4-2.59-2.09-5.72-2.09-9.42ZM631.85,271.09c0,3.2.76,5.64,2.28,7.34,1.52,1.7,3.39,2.55,5.61,2.55s4.08-.85,5.59-2.55c1.51-1.7,2.26-4.17,2.26-7.4s-.76-5.58-2.26-7.28c-1.51-1.7-3.37-2.55-5.59-2.55s-4.1.85-5.61,2.55c-1.52,1.7-2.28,4.15-2.28,7.34Z" fill="#000" stroke-width="0"/>
    <path d="M662.39,254.99h7.86v4.4c2.81-3.42,6.16-5.13,10.04-5.13,2.06,0,3.85.42,5.37,1.27,1.52.85,2.76,2.13,3.73,3.85,1.42-1.72,2.94-3,4.58-3.85,1.64-.85,3.39-1.27,5.25-1.27,2.37,0,4.37.49,6.01,1.44,1.64.97,2.86,2.38,3.67,4.24.59,1.38.88,3.6.88,6.67v20.6h-8.52v-18.41c0-3.2-.29-5.26-.88-6.19-.79-1.21-2-1.82-3.64-1.82-1.19,0-2.32.36-3.37,1.09-1.05.73-1.81,1.8-2.27,3.21-.47,1.41-.7,3.62-.7,6.65v15.47h-8.52v-17.65c0-3.13-.15-5.16-.46-6.07-.3-.91-.78-1.59-1.42-2.03-.64-.44-1.5-.67-2.59-.67-1.31,0-2.5.35-3.55,1.06-1.05.71-1.81,1.73-2.26,3.06-.45,1.33-.68,3.55-.68,6.64v15.65h-8.52v-32.21Z" fill="#000" stroke-width="0"/>
    <path d="M718.02,254.99h7.95v4.73c1.03-1.62,2.43-2.93,4.19-3.94,1.76-1.01,3.71-1.52,5.85-1.52,3.74,0,6.92,1.47,9.52,4.4,2.61,2.93,3.91,7.02,3.91,12.25s-1.31,9.57-3.94,12.55c-2.63,2.98-5.81,4.47-9.56,4.47-1.78,0-3.4-.35-4.84-1.06-1.45-.71-2.96-1.92-4.56-3.64v16.23h-8.52v-44.47ZM726.46,270.55c0,3.62.72,6.3,2.15,8.02,1.44,1.74,3.19,2.6,5.25,2.6s3.63-.79,4.94-2.38c1.31-1.59,1.97-4.2,1.97-7.82,0-3.38-.68-5.88-2.03-7.52-1.35-1.64-3.03-2.46-5.04-2.46s-3.81.81-5.19,2.41c-1.38,1.62-2.06,3.99-2.06,7.15Z" fill="#000" stroke-width="0"/>
    <path d="M762.58,264.81l-7.74-1.4c.87-3.11,2.37-5.42,4.49-6.92,2.12-1.5,5.28-2.24,9.46-2.24,3.8,0,6.63.45,8.49,1.35,1.86.9,3.17,2.04,3.92,3.42.77,1.4,1.14,3.93,1.14,7.63l-.09,9.95c0,2.83.14,4.92.4,6.26.28,1.35.79,2.79,1.54,4.33h-8.43c-.22-.57-.5-1.41-.82-2.52-.14-.51-.24-.84-.3-1-1.46,1.42-3.01,2.48-4.67,3.19-1.66.71-3.43,1.06-5.31,1.06-3.32,0-5.93-.9-7.85-2.7-1.9-1.8-2.86-4.07-2.86-6.83,0-1.82.43-3.44,1.3-4.87.87-1.42,2.08-2.51,3.66-3.28,1.56-.75,3.82-1.42,6.77-1.98,3.98-.75,6.74-1.45,8.28-2.09v-.85c0-1.64-.4-2.8-1.21-3.51-.81-.69-2.34-1.04-4.58-1.04-1.52,0-2.7.3-3.55.9-.85.6-1.54,1.64-2.06,3.13ZM773.99,271.73c-1.09.36-2.82.8-5.19,1.3-2.37.51-3.91,1-4.64,1.49-1.11.79-1.67,1.79-1.67,3s.44,2.22,1.33,3.09c.89.87,2.02,1.3,3.4,1.3,1.54,0,3-.51,4.4-1.52,1.03-.77,1.71-1.71,2.03-2.82.22-.73.33-2.11.33-4.16v-1.7Z" fill="#000" stroke-width="0"/>
    <path d="M820.07,287.2h-8.52v-16.44c0-3.48-.18-5.72-.55-6.75-.36-1.01-.95-1.81-1.78-2.38-.81-.57-1.8-.85-2.95-.85-1.48,0-2.8.4-3.97,1.21-1.17.81-1.98,1.88-2.42,3.22-.43,1.33-.65,3.8-.65,7.4v14.59h-8.52v-32.21h7.92v4.73c2.81-3.64,6.35-5.46,10.62-5.46,1.88,0,3.6.34,5.16,1.01,1.56.69,2.73,1.55,3.54,2.6.79,1.05,1.34,2.24,1.66,3.58.31,1.33.48,3.25.48,5.73v20.02Z" fill="#000" stroke-width="0"/>
    <path d="M824.68,254.99h9.07l7.7,22.87,7.52-22.87h8.83l-11.38,31-2.03,5.61c-.75,1.88-1.47,3.32-2.14,4.31-.68.99-1.46,1.79-2.33,2.42-.89.61-1.97,1.09-3.26,1.44-1.28.34-2.73.52-4.35.52s-3.25-.17-4.82-.52l-.76-6.67c1.33.26,2.54.39,3.61.39,1.98,0,3.45-.59,4.4-1.75.95-1.16,1.68-2.64,2.18-4.44l-12.25-32.31Z" fill="#000" stroke-width="0"/>
  </g>
  <g>
    <path d="M506.09,59.95c-42.1-3.36-77.12,31.66-73.76,73.76,2.64,33.13,29.48,59.96,62.61,62.6,42.1,3.35,77.11-31.66,73.76-73.76-2.64-33.13-29.47-59.97-62.6-62.61ZM504.67,159.81c-20.86,2.65-38.48-14.98-35.83-35.84,1.81-14.22,13.29-25.71,27.51-27.52,20.87-2.66,38.5,14.98,35.84,35.85-1.81,14.22-13.3,25.7-27.52,27.51Z" fill="#1877ff" stroke-width="0"/>
    <rect x="670.83" y="113.08" width="92.4" height="30.1" fill="#1877ff" stroke-width="0"/>
    <rect x="670.83" y="164.38" width="92.4" height="30.1" fill="#1877ff" stroke-width="0"/>
    <polygon points="599.99 194.48 642.4 194.48 642.4 91.88 763.38 91.88 763.38 61.78 642.4 61.78 599.99 61.78 573.21 61.78 573.21 91.88 599.99 91.88 599.99 194.48" fill="#1877ff" stroke-width="0"/>
    <polygon points="869.82 128.24 870.24 127.62 915.18 61.78 871.26 61.78 828.84 123.93 828.84 61.78 786.43 61.78 786.43 194.48 828.84 194.48 828.84 132.33 871.26 194.48 920.51 194.48 869.82 128.24" fill="#1877ff" stroke-width="0"/>
    <polygon points="382.88 194.48 433.71 61.78 391.58 61.78 361.88 153.25 332.18 61.78 290.06 61.78 340.88 194.48 382.88 194.48" fill="#1877ff" stroke-width="0"/>
    <rect x="235.9" y="61.78" width="42.41" height="132.7" fill="#1877ff" stroke-width="0"/>
    <polygon points="224.16 61.78 182.03 61.78 152.33 153.25 122.63 61.78 80.51 61.78 131.33 194.48 173.33 194.48 224.16 61.78" fill="#1877ff" stroke-width="0"/>
  </g>
</svg>